HIERARCHY
ROOT SpineBase
{
  OFFSET 0.000000 0.000000 0.000000
  CHANNELS 6 Xposition Yposition Zposition Zrotation Xrotation Yrotation
  JOINT SpineMid
  {
    OFFSET 0.000000 32.117063 0.000000
    CHANNELS 3 Zrotation Xrotation Yrotation
    JOINT SpineShoulder
    {
      OFFSET -0.007869 23.870452 -0.800245
      CHANNELS 3 Zrotation Xrotation Yrotation
      JOINT Neck
      {
        OFFSET 0.012991 7.905128 -0.598323
        CHANNELS 3 Zrotation Xrotation Yrotation
        JOINT Head
        {
          OFFSET 3.651502 12.628596 6.323237
          CHANNELS 3 Zrotation Xrotation Yrotation
          End Site
          {
            OFFSET 0 0 0
          }
        }
      }
      JOINT ShoulderLeft
      {
        OFFSET -10.365633 -2.339673 -11.292866
        CHANNELS 3 Zrotation Xrotation Yrotation
        JOINT ElbowLeft
        {
          OFFSET -6.468001 -23.115541 -6.707355
          CHANNELS 3 Zrotation Xrotation Yrotation
          JOINT WristLeft
          {
            OFFSET 13.325042 -12.635340 -7.399614
            CHANNELS 3 Zrotation Xrotation Yrotation
            JOINT HandLeft
            {
              OFFSET 5.561379 0.125980 -3.315673
              CHANNELS 3 Zrotation Xrotation Yrotation
              JOINT HandTipLeft
              {
                OFFSET 7.139552 -0.529972 -3.136051
                CHANNELS 3 Zrotation Xrotation Yrotation
                End Site
                {
                  OFFSET 0 0 0
                }
              }
              JOINT ThumbLeft
              {
                OFFSET 3.289826 2.102729 0.113596
                CHANNELS 3 Zrotation Xrotation Yrotation
                End Site
                {
                  OFFSET 0 0 0
                }
              }
            }
          }
        }
      }
      JOINT ShoulderRight
      {
        OFFSET 12.766566 -3.350849 10.574767
        CHANNELS 3 Zrotation Xrotation Yrotation
        JOINT ElbowRight
        {
          OFFSET 1.929680 -25.031712 3.645783
          CHANNELS 3 Zrotation Xrotation Yrotation
          JOINT WristRight
          {
            OFFSET 5.006473 -11.012705 -25.155008
            CHANNELS 3 Zrotation Xrotation Yrotation
            JOINT HandRight
            {
              OFFSET 3.086457 -0.202655 -1.419810
              CHANNELS 3 Zrotation Xrotation Yrotation
              JOINT HandTipRight
              {
                OFFSET -2.268288 -2.629665 -5.757131
                CHANNELS 3 Zrotation Xrotation Yrotation
                End Site
                {
                  OFFSET 0 0 0
                }
              }
              JOINT ThumbRight
              {
                OFFSET -6.079445 -0.184603 -6.710205
                CHANNELS 3 Zrotation Xrotation Yrotation
                End Site
                {
                  OFFSET 0 0 0
                }
              }
            }
          }
        }
      }
    }
  }
  JOINT HipLeft
  {
    OFFSET -4.651508 1.783925 -7.814764
    CHANNELS 3 Zrotation Xrotation Yrotation
    JOINT KneeLeft
    {
      OFFSET -8.281197 -36.939450 -8.651819
      CHANNELS 3 Zrotation Xrotation Yrotation
      JOINT AnkleLeft
      {
        OFFSET -5.771819 -36.559808 -1.746303
        CHANNELS 3 Zrotation Xrotation Yrotation
        JOINT FootLeft
        {
          OFFSET -0.213404 -6.641967 -8.480976
          CHANNELS 3 Zrotation Xrotation Yrotation
          End Site
          {
            OFFSET 0 0 0
          }
        }
      }
    }
  }
  JOINT HipRight
  {
    OFFSET 5.285576 0.084988 0.641586
    CHANNELS 3 Zrotation Xrotation Yrotation
    JOINT KneeRight
    {
      OFFSET -0.404734 -38.707653 2.297499
      CHANNELS 3 Zrotation Xrotation Yrotation
      JOINT AnkleRight
      {
        OFFSET -3.498193 -34.331014 10.700629
        CHANNELS 3 Zrotation Xrotation Yrotation
        JOINT FootRight
        {
          OFFSET 1.990014 -8.195130 -4.650972
          CHANNELS 3 Zrotation Xrotation Yrotation
          End Site
          {
            OFFSET 0 0 0
          }
        }
      }
    }
  }
}
MOTION
Frames: 13
Frame Time: 0.033333
-32.044251 82.038794 353.228149 -0.000000 0.000000 -40.397421 -0.000000 0.000000 40.397421 -0.000000 0.000000 0.000000 -0.000000 0.000000 0.000000 0.000000 0.000000 0.000000 -0.000000 0.000000 0.000000 -0.000000 0.000000 0.000000 -0.000000 0.000000 0.000000 -0.000000 0.000000 0.000000 0.000000 0.000000 0.000000 0.000000 0.000000 0.000000 -0.000000 0.000000 0.000000 -0.000000 0.000000 0.000000 -0.000000 0.000000 0.000000 -0.000000 0.000000 0.000000 0.000000 0.000000 0.000000 0.000000 0.000000 0.000000 -0.000000 0.000000 40.397421 -0.000000 0.000000 0.000000 -0.000000 0.000000 0.000000 0.000000 0.000000 0.000000 -0.000000 0.000000 40.397421 -0.000000 0.000000 0.000000 -0.000000 0.000000 0.000000 0.000000 0.000000 0.000000
-33.297734 82.125789 351.087922 0.527267 0.336587 -40.152523 -0.185983 -0.597252 40.150005 -0.000000 0.000000 0.000000 0.935288 -1.148709 -0.127728 0.000000 0.000000 0.000000 -0.000000 0.000000 0.000000 2.038581 0.847514 -0.308146 -5.015690 -2.694654 0.925412 3.011848 1.784689 -0.786949 0.000000 0.000000 0.000000 0.000000 0.000000 0.000000 1.183979 0.386665 0.198201 -1.493468 1.182144 1.181955 -0.954371 -2.179843 -2.955535 1.955216 5.516432 -4.130433 0.000000 0.000000 0.000000 0.000000 0.000000 0.000000 0.925363 -0.631328 40.134545 -0.458156 -1.101650 0.307802 0.513231 0.366274 -1.379637 0.000000 0.000000 0.000000 0.865036 -0.961791 40.208006 0.553921 -0.147386 0.414407 1.390261 1.721109 -1.766579 0.000000 0.000000 0.000000
-34.459128 82.191139 349.108553 1.006314 0.602442 -40.006396 -0.098588 -0.051349 40.030588 -0.071658 -0.003733 0.030855 0.951205 -2.783847 -0.282911 0.000000 0.000000 0.000000 0.242209 -1.031945 -0.247142 2.791412 1.921839 -0.526945 -10.124558 -5.454666 1.313673 6.374117 3.729508 -1.308422 0.000000 0.000000 0.000000 0.000000 0.000000 0.000000 1.385450 0.120991 0.323028 -2.777640 1.822857 1.977685 -1.862859 -3.603242 -4.366993 3.818814 9.170301 -7.761585 0.000000 0.000000 0.000000 0.000000 0.000000 0.000000 1.811547 -1.214965 39.998720 -0.885398 -1.976272 0.581687 0.968001 0.543767 -2.683914 0.000000 0.000000 0.000000 1.727250 -1.803162 40.140108 0.874133 -0.117076 0.736923 2.837477 3.130165 -3.439785 0.000000 0.000000 0.000000
-35.528435 82.234842 347.290043 1.436759 0.797223 -39.964372 -0.131089 -0.074981 39.996385 -0.100540 -0.007680 0.044483 1.337183 -3.845420 -0.391657 0.000000 0.000000 0.000000 0.342673 -1.344396 -0.366575 3.940713 2.519022 -0.903463 -15.260638 -8.163713 0.957785 10.657500 6.027120 -2.238741 0.000000 0.000000 0.000000 0.000000 0.000000 0.000000 1.927987 0.265120 0.454943 -3.862190 1.890688 2.361701 -2.751255 -4.350570 -4.487059 5.698971 11.578338 -11.196494 0.000000 0.000000 0.000000 0.000000 0.000000 0.000000 2.645880 -1.746116 39.992738 -1.266613 -2.661601 0.821919 1.359975 0.569857 -3.904985 0.000000 0.000000 0.000000 2.584957 -2.513843 40.194510 0.994733 0.046338 0.983952 4.287535 4.275585 -5.000463 0.000000 0.000000 0.000000
-36.505652 82.256898 345.632391 1.818294 0.920693 -40.030259 -0.152142 -0.097740 40.068982 -0.124852 -0.013180 0.057015 1.659522 -4.677966 -0.489486 0.000000 0.000000 0.000000 0.428328 -1.518870 -0.486302 4.931157 2.878743 -1.328719 -20.278868 -10.614287 -0.343673 14.353002 8.128423 -3.080318 0.000000 0.000000 0.000000 0.000000 0.000000 0.000000 2.407250 0.476591 0.569549 -4.761243 1.354703 2.311104 -3.639738 -4.468525 -3.421832 7.654541 13.090363 -14.637934 0.000000 0.000000 0.000000 0.000000 0.000000 0.000000 3.415106 -2.219732 40.117116 -1.586905 -3.191204 1.028256 1.686388 0.476114 -5.037037 0.000000 0.000000 0.000000 3.434542 -3.084014 40.369691 0.942866 0.307868 1.169320 5.700333 5.198542 -6.432373 0.000000 0.000000 0.000000
-37.390782 82.257309 344.135598 2.150671 0.972690 -40.206346 -0.161603 -0.119796 40.251688 -0.144635 -0.020301 0.068505 1.915739 -5.276839 -0.583162 0.000000 0.000000 0.000000 0.498463 -1.554108 -0.608133 5.768653 3.007983 -1.787238 -24.919424 -12.519170 -2.714785 17.602883 10.167803 -3.539086 0.000000 0.000000 0.000000 0.000000 0.000000 0.000000 2.843786 0.763024 0.668044 -5.497241 0.180437 1.804113 -4.549479 -3.988359 -1.193311 9.714752 13.894743 -18.222873 0.000000 0.000000 0.000000 0.000000 0.000000 0.000000 4.105951 -2.630852 40.370258 -1.832214 -3.594808 1.200106 1.945653 0.288925 -6.075864 0.000000 0.000000 0.000000 4.270346 -3.504669 40.661901 0.740253 0.639808 1.304394 7.046918 5.933979 -7.722484 0.000000 0.000000 0.000000
-38.304946 82.225190 342.613113 2.386535 1.013057 -40.623929 -0.195295 -0.123861 40.672606 -0.166609 -0.013631 0.075123 2.000533 -5.479742 -0.675865 0.000000 0.000000 0.000000 0.244863 -1.479021 -0.646445 6.771351 2.897037 -2.243769 -29.497017 -13.633792 -7.731901 20.238247 12.356176 -3.905040 0.000000 0.000000 0.000000 0.000000 0.000000 0.000000 3.172644 1.498301 0.759467 -5.707473 -1.845555 0.355027 -6.422885 -3.623186 6.141939 12.557951 13.844195 -23.900943 0.000000 0.000000 0.000000 0.000000 0.000000 0.000000 4.932574 -3.102528 40.930500 -1.948008 -3.811502 1.315920 2.176527 0.027487 -7.199150 0.000000 0.000000 0.000000 5.280370 -4.181836 41.219784 0.784855 1.492476 1.416754 8.868298 7.890752 -9.092780 0.000000 0.000000 0.000000
-38.987005 82.181049 341.488300 2.591706 0.922741 -41.133773 -0.158167 -0.144755 41.191116 -0.162754 -0.046208 0.085864 1.768203 -5.318061 -0.700564 0.000000 0.000000 0.000000 0.100254 -1.026408 -0.777840 7.345733 2.277353 -2.762191 -29.614621 -12.474030 -11.057872 19.025359 12.217258 -3.391809 0.000000 0.000000 0.000000 0.000000 0.000000 0.000000 3.601745 2.278602 0.836018 -6.189665 -5.166442 -1.634850 -7.909128 -1.979823 12.885165 15.960034 14.178402 -30.349443 0.000000 0.000000 0.000000 0.000000 0.000000 0.000000 5.340636 -3.279597 41.513467 -1.969694 -4.238465 1.446631 2.355432 -0.274242 -8.134758 0.000000 0.000000 0.000000 5.973323 -4.349876 41.831019 0.614684 1.945402 1.498046 11.199480 9.587770 -10.696071 0.000000 0.000000 0.000000
-39.611572 82.122426 340.453286 2.800702 0.704816 -41.468977 -0.066424 -0.201885 41.541091 -0.166281 -0.085168 0.097761 2.067011 -5.300481 -0.876754 0.000000 0.000000 0.000000 0.483897 -0.586374 -1.005697 7.546016 1.721916 -3.421438 -30.344430 -11.467243 -14.661907 18.487807 12.561523 -1.997688 0.000000 0.000000 0.000000 0.000000 0.000000 0.000000 4.460828 2.452029 0.922385 -7.354274 -8.321794 -3.624970 -9.205723 0.071888 20.805623 19.457500 12.651054 -37.476015 0.000000 0.000000 0.000000 0.000000 0.000000 0.000000 5.690931 -3.425766 41.937177 -1.971403 -4.463645 1.536795 2.349221 -0.611808 -8.801546 0.000000 0.000000 0.000000 6.709164 -3.972641 42.257698 -0.259510 2.088199 1.534174 12.565830 10.296328 -11.654908 0.000000 0.000000 0.000000
-39.972131 82.068189 339.814637 3.037314 0.357215 -42.011495 0.076403 -0.259607 42.106267 -0.152415 -0.118616 0.114329 1.941756 -4.812695 -1.014793 0.000000 0.000000 0.000000 0.984745 0.132555 -1.349795 7.430997 1.020863 -3.921005 -29.787714 -10.318289 -16.376132 16.739085 11.677063 -1.727424 0.000000 0.000000 0.000000 0.000000 0.000000 0.000000 4.684762 3.171134 0.912796 -8.321714 -11.627118 -4.827806 -8.809542 3.315849 19.923021 19.687151 11.645221 -37.550754 0.000000 0.000000 0.000000 0.000000 0.000000 0.000000 5.682822 -3.518794 42.574288 -1.844811 -4.442550 1.527716 2.438015 -1.255582 -9.415297 0.000000 0.000000 0.000000 7.107841 -3.001610 42.826518 -1.590604 1.842401 1.510052 9.616831 5.602035 -10.480444 0.000000 0.000000 0.000000
-40.102005 81.971962 339.626486 3.276293 -0.181846 -42.440236 0.179080 -0.301054 42.563120 -0.150432 -0.126982 0.129057 2.161172 -4.583217 -1.181440 0.000000 0.000000 0.000000 1.449491 1.006530 -1.702046 6.967461 0.084954 -4.379431 -26.940875 -8.267148 -17.137484 13.367130 9.354286 -0.048906 0.000000 0.000000 0.000000 0.000000 0.000000 0.000000 4.626787 3.645193 0.844849 -8.783948 -14.426882 -6.483998 -8.689383 6.431629 17.777175 19.220235 11.365397 -35.250073 0.000000 0.000000 0.000000 0.000000 0.000000 0.000000 5.192477 -3.376610 43.033896 -1.637974 -4.386931 1.480920 2.482646 -1.934908 -9.738978 0.000000 0.000000 0.000000 7.148241 -1.529289 43.214528 -3.390671 1.628335 1.343809 12.377382 8.047359 -11.153791 0.000000 0.000000 0.000000
-40.300918 81.903443 339.293628 3.571351 -0.663296 -43.134967 0.242941 -0.333951 43.287076 -0.156708 -0.131014 0.144113 2.049048 -4.187131 -1.283682 0.000000 0.000000 0.000000 1.614139 1.990815 -2.041938 6.461841 -1.406618 -4.973488 -22.018616 -5.456827 -14.853346 9.190314 5.859849 1.118781 0.000000 0.000000 0.000000 0.000000 0.000000 0.000000 4.625817 4.708889 0.797862 -9.360642 -18.446096 -9.171362 -9.962011 8.990447 21.967917 21.609469 9.904689 -39.524559 0.000000 0.000000 0.000000 0.000000 0.000000 0.000000 4.908205 -3.373239 43.806782 -1.333230 -4.252754 1.422170 2.206417 -2.073192 -9.821669 0.000000 0.000000 0.000000 7.032159 0.118762 43.843441 -5.154783 1.245247 1.170641 13.033138 7.427975 -11.073955 0.000000 0.000000 0.000000
-40.350496 81.857865 339.197194 3.887484 -1.167461 -43.856877 0.265934 -0.341496 44.040616 -0.167492 -0.129430 0.158999 1.859094 -3.745225 -1.371712 0.000000 0.000000 0.000000 1.631793 2.988579 -2.353875 5.581308 -2.878971 -5.294053 -16.328559 -2.154106 -11.900867 5.008760 2.336664 2.156957 0.000000 0.000000 0.000000 0.000000 0.000000 0.000000 4.687607 5.837264 0.753750 -10.335582 -22.572676 -11.626497 -11.015949 11.692558 26.124451 23.689566 8.242016 -43.909618 0.000000 0.000000 0.000000 0.000000 0.000000 0.000000 4.427122 -3.340634 44.592497 -1.185838 -4.071167 1.348543 2.577948 -2.722350 -10.550258 0.000000 0.000000 0.000000 6.350052 1.665685 44.471725 -6.279757 1.069765 0.968026 11.824006 5.462775 -10.029064 0.000000 0.000000 0.000000
